<svg width="51" height="61" viewBox="0 0 51 61" fill="none" xmlns="http://www.w3.org/2000/svg">
<path fill-rule="evenodd" clip-rule="evenodd" d="M30.725 21.6276C32.5823 20.7015 34.9455 19.3383 37.3115 17.4705C37.8104 18.5065 37.8651 19.4106 37.608 20.1405C37.4259 20.655 37.0826 21.1025 36.6313 21.4585C36.1426 21.8432 35.5322 22.1233 34.8575 22.2747C33.5772 22.563 32.0824 22.3947 30.725 21.6276ZM31.047 31.1165L33.5056 32.5366C28.4857 35.3501 27.1211 40.5743 25.5 45.6628C23.8791 40.5743 22.5143 35.3501 17.4946 32.5366L19.9531 31.1165C20.191 31.0266 20.3942 30.8637 20.5338 30.6512C20.6734 30.4388 20.7422 30.1875 20.7303 29.9336C20.505 25.1681 21.7918 23.0607 23.5274 21.7375C24.1499 21.2636 24.8295 21.0256 25.5 21.0256C26.1705 21.0256 26.8501 21.2636 27.4728 21.7375C29.2084 23.0607 30.4951 25.1681 30.2699 29.9336C30.258 30.1875 30.3267 30.4388 30.4663 30.6512C30.6059 30.8637 30.8092 31.0266 31.047 31.1165ZM25.5 0C28.3418 0.0762976 31.1907 0.627988 33.6632 1.70121C35.3754 2.44537 36.973 3.42833 38.4196 4.60376C39.0729 5.1344 39.6108 5.64704 40.2034 6.23718C41.8016 6.29243 44.1372 4.51694 45.2216 2.8556C43.3554 8.97357 34.8397 16.1984 28.9441 18.9629C28.9417 18.9619 28.9401 18.9605 28.9382 18.9592C27.8802 18.1513 26.6902 17.7474 25.5 17.7474C24.3098 17.7474 23.12 18.1513 22.0619 18.9592C22.0601 18.9603 22.0585 18.9621 22.0561 18.9629C16.1603 16.1984 7.64472 8.97357 5.77856 2.8556C6.86272 4.51694 9.1984 6.29243 10.7966 6.23718C11.3894 5.64724 11.9273 5.1344 12.5804 4.60376C14.027 3.42833 15.6246 2.44537 17.3367 1.70121C19.8094 0.627988 22.6583 0.0762976 25.5 0ZM20.2749 21.6276C18.4179 20.7015 16.0545 19.3383 13.6886 17.4705C13.1898 18.5065 13.1351 19.4106 13.3919 20.1405C13.5743 20.655 13.9175 21.1025 14.3686 21.4585C14.8576 21.8432 15.468 22.1233 16.1427 22.2747C17.423 22.563 18.9175 22.3947 20.2749 21.6276Z" fill="white"/>
<path fill-rule="evenodd" clip-rule="evenodd" d="M39.9028 15.1819C41.2054 13.8674 42.3531 12.4125 43.2759 11.1143L43.7446 11.9964C45.2536 15.0154 46.0376 18.0221 46.0376 21.4059L46.0344 26.7755L46.0627 29.5591C46.172 36.3927 47.6506 43.3066 51 49.6338L43.9922 43.9829L39.0336 52.0294L33.8243 47.1255L25.5 60.6343L17.1757 47.1257L11.9666 52.0296L7.00805 43.9832L0 49.634C3.3494 43.3068 4.828 36.3929 4.93749 29.5593L4.96582 26.7757L4.96258 21.4061C4.96258 18.0221 5.74641 15.0154 7.25576 11.9966L7.72427 11.1145C8.64713 12.4127 9.79463 13.8674 11.0974 15.1821L10.6906 16.0271C9.90027 17.6682 9.6386 19.5031 10.2542 21.2483C10.6511 22.3723 11.3754 23.3362 12.3092 24.0721C13.2159 24.7867 14.2889 25.2684 15.4123 25.5214C16.1441 25.6861 16.8897 25.7539 17.6304 25.7308C17.4576 26.7105 17.3821 27.7267 17.3772 28.7621L10.7667 32.5802L15.8679 35.4396C16.2756 35.6682 16.6637 35.9301 17.0283 36.2227C21.234 39.9987 23.7626 51.1695 25.5002 56.6259C27.238 51.1695 29.7664 39.9987 33.9723 36.2227C34.3368 35.9301 34.725 35.6682 35.1327 35.4396L40.2339 32.5802L33.6232 28.7621C33.6183 27.7267 33.5428 26.7105 33.37 25.7308C34.1107 25.7539 34.8563 25.6861 35.5881 25.5214C36.7115 25.2684 37.7847 24.7867 38.6912 24.0721C39.6248 23.3362 40.3493 22.3723 40.746 21.2483C41.3618 19.5031 41.0999 17.6684 40.3098 16.0271L39.903 15.1821L39.9028 15.1819Z" fill="white"/>
</svg>
