<svg width="51" height="42" viewBox="0 0 51 42" fill="none" xmlns="http://www.w3.org/2000/svg">
<path fill-rule="evenodd" clip-rule="evenodd" d="M30.8928 6.29634C26.3251 8.16595 17.1962 12.0356 3.50599 17.9052C1.28291 18.7751 0.118369 19.6262 0.0123553 20.4584C-0.16681 21.8648 1.62291 22.4186 4.06003 23.1728C4.39155 23.2754 4.73504 23.3816 5.08719 23.4943C7.48496 24.2613 10.7104 25.1586 12.3871 25.1943C13.9081 25.2266 15.6057 24.6095 17.4799 23.3431C30.2711 14.8461 36.8739 10.5514 37.2885 10.4588C37.5809 10.3935 37.9862 10.3114 38.2608 10.5515C38.5354 10.7917 38.5084 11.2466 38.4793 11.3686C38.302 12.1124 31.2767 18.5397 27.6411 21.8659C26.5077 22.9028 25.7037 23.6384 25.5394 23.8063C25.1712 24.1826 24.796 24.5386 24.4354 24.8807C22.2078 26.9939 20.5374 28.5786 24.5279 31.1664C26.4456 32.4101 27.9802 33.4384 29.5111 34.4644C31.183 35.5848 32.8505 36.7024 35.0081 38.0942C35.5578 38.4488 36.0828 38.8171 36.5941 39.1758C38.5398 40.5408 40.2879 41.7672 42.4475 41.5716C43.7023 41.458 44.9985 40.2968 45.6568 36.8336C47.2126 28.6492 50.2706 10.9159 50.9773 3.60842C51.0393 2.96819 50.9613 2.14882 50.8988 1.78914C50.8363 1.42946 50.7055 0.91699 50.2304 0.537622C49.6678 0.0883368 48.7992 -0.00640752 48.4107 0.000326428C46.6444 0.030946 43.9344 0.958234 30.8928 6.29634Z" fill="white"/>
</svg>
